<svg xmlns="http://www.w3.org/2000/svg" width="400" height="400">
	<path fill="#333" d="M198.643 158.931l-39.712 39.712c-.75.75-.729 1.985.043 2.758l39.624 39.624c.774.774 2.01.795 2.76.045l39.712-39.713c.752-.751.729-1.984-.046-2.759l-39.623-39.624c-.773-.773-2.006-.795-2.758-.043zM282.401 244H235.6c-.884 0-1.6.74-1.6 1.65v46.697c0 .913.716 1.652 1.6 1.652h46.801c.886 0 1.6-.739 1.6-1.652V245.65c0-.91-.715-1.65-1.6-1.65zM162.401 104H115.6c-.884 0-1.6.74-1.6 1.65v46.697c0 .913.716 1.652 1.6 1.652h46.801c.886 0 1.6-.739 1.6-1.652V105.65c0-.91-.715-1.65-1.6-1.65z"/>
	<path fill="#333" d="M312.401 274H265.6c-.884 0-1.6.74-1.6 1.65v46.697c0 .913.716 1.652 1.6 1.652h46.801c.886 0 1.6-.739 1.6-1.652V275.65c0-.91-.715-1.65-1.6-1.65zM132.401 75H85.6c-.884 0-1.6.74-1.6 1.65v46.697c0 .913.716 1.652 1.6 1.652h46.801c.886 0 1.6-.739 1.6-1.652V76.65c0-.91-.715-1.65-1.6-1.65zM282.401 104H235.6c-.884 0-1.6.74-1.6 1.65v46.697c0 .913.716 1.652 1.6 1.652h46.801c.886 0 1.6-.739 1.6-1.652V105.65c0-.91-.715-1.65-1.6-1.65zM162.401 245H115.6c-.884 0-1.6.74-1.6 1.65v46.697c0 .913.716 1.652 1.6 1.652h46.801c.886 0 1.6-.739 1.6-1.652V246.65c0-.91-.715-1.65-1.6-1.65z"/>
	<path fill="#333" d="M132.401 275H85.6c-.884 0-1.6.74-1.6 1.65v46.697c0 .913.716 1.652 1.6 1.652h46.801c.886 0 1.6-.739 1.6-1.652V276.65c0-.91-.715-1.65-1.6-1.65zM312.401 75H265.6c-.884 0-1.6.74-1.6 1.65v46.697c0 .913.716 1.652 1.6 1.652h46.801c.886 0 1.6-.739 1.6-1.652V76.65c0-.91-.715-1.65-1.6-1.65z"/>
</svg>
