<svg xmlns="http://www.w3.org/2000/svg" width="400" height="400">
	<path opacity=".6" fill="#CCC" stroke="#333" stroke-width="4" stroke-miterlimit="10" d="M389.584 146.911l-17.97-43.436-46.528 2.333c-8.908-11.85-19.285-22.206-30.856-30.898l.088-.101 2.435-46.777-43.37-18.011-31.346 34.783-.019.069c-14.327-2.033-29.023-2.147-43.669-.055L147.002 10l-43.39 17.992 2.424 46.784c-11.846 8.918-22.139 19.391-30.822 30.99l-.088-.046-46.726-2.407-17.938 43.406 34.734 31.349.088.047c-1.68 13.435-2.381 29.144-.306 43.832L10 253.4l17.968 43.446 46.948-2.499c8.895 11.843 19.486 22.133 31.036 30.814l.033.059-2.371 46.764 47.533 17.993 35.503-34.791v-.078c9.199 1.686 24.879 2.155 39.54.095L255.465 390l42.362-17.987-2.957-46.792c11.829-8.922 21.895-19.396 30.581-30.979l-.054.024 46.657 2.411L390 253.244l-34.772-31.368-.077-.042c2.017-14.324 1.958-28.964-.112-43.636l34.545-31.287zM230.145 272.39c-39.922 16.554-85.716-2.423-102.256-42.411-16.548-39.977 2.407-85.813 42.353-102.371 39.95-16.56 85.726 2.423 102.279 42.401 16.526 39.994-2.44 85.817-42.376 102.381z"/>
</svg>
