<svg xmlns="http://www.w3.org/2000/svg" width="400" height="400">
	<path fill="none" d="M118.745 214.535s0-11.076-3.897-22.736c-3.898-11.658.399-32.646.399-32.646s-2.832-7.412 6.632-50.236C96.243 130.923 80 163.563 80 200c0 29.537 10.678 56.575 28.375 77.482l19.781-19.781c-.693-7.099-1.519-16.412-1.833-23.346-.582-12.824-7.578-19.82-7.578-19.82zM284.754 159.152s4.297 20.989.399 32.646c-3.897 11.66-3.897 22.736-3.897 22.736s-6.997 6.996-7.579 19.82c-.583 12.826-2.915 33.813-2.915 33.813l-30.165 44.784C286.891 296.311 320 252.024 320 200c0-29.537-10.678-56.576-28.376-77.483l-9.014 9.013c3.914 23.013 2.144 27.622 2.144 27.622zM122.518 291.624a119.914 119.914 0 0 0 36.881 21.322l-23.425-34.778-13.456 13.456z"/>
	<path fill="none" d="M200 214.566c.32-.02.764-.045 1.318-.082 3.188-.199 9.992-.656 17.336-1.326 10.999-1.006 23.198-2.488 26.233-4.311 5.83-3.498 8.745 5.752 8.745 5.752s-10.493 10.57-22.735 10.57c-12.243 0-21.569-5.828-21.569-5.828l-9.328-.91-4.754.464-38.525 38.524c2.448 9.704 2.763 13.766 2.763 13.766l-6.414 5.045 21.57 30.877 5.83-4.893h11.076l8.453-5.199 8.453 5.199h11.076l5.829 4.893 21.571-30.877-6.414-5.045s.584-7.58 6.414-26.816c5.829-19.24 32.063-42.635 32.063-42.635s-4.081-23.242-6.996-33.734c-1.241-4.468-.791-15.171.135-25.99l-72.532 72.532.402.024zm-26.234 79.327c-2.053 0-3.716-10.715-3.716-23.938 0-13.221 1.663-23.938 3.716-23.938s3.717 10.717 3.717 23.938c0 13.223-1.663 23.938-3.717 23.938zm17.49 0c-2.053 0-3.717-10.715-3.717-23.938 0-13.221 1.664-23.938 3.717-23.938s3.716 10.717 3.716 23.938c0 13.223-1.663 23.938-3.716 23.938zm17.488 0c-2.053 0-3.717-10.715-3.717-23.938 0-13.221 1.664-23.938 3.717-23.938s3.717 10.717 3.717 23.938c0 13.223-1.664 23.938-3.717 23.938zm17.49 0c-2.053 0-3.716-10.715-3.716-23.938 0-13.221 1.663-23.938 3.716-23.938s3.716 10.717 3.716 23.938c-.001 13.223-1.664 23.938-3.716 23.938zM146.367 214.6s2.915-9.25 8.745-5.752c2.318 1.392 9.986 2.585 18.379 3.52L274.169 111.69l-26.854-18.797a54.993 54.993 0 0 1 1.364 12.147c0 27.901-20.901 51.172-48.679 56.541-27.777-5.369-48.678-28.639-48.678-56.541 0-4.168.478-8.229 1.363-12.147l-28.179 19.725s6.413 44.889 3.498 55.383c-2.916 10.493-6.996 33.734-6.996 33.734s19.489 17.39 28.601 34.514l12.24-12.24c-8.859-2.744-15.482-9.409-15.482-9.409z"/>
	<path fill="#848484" d="M121.009 201.734s4.08-23.242 6.996-33.734c2.915-10.494-3.498-55.383-3.498-55.383l28.179-19.725a54.993 54.993 0 0 0-1.363 12.147c0 27.901 20.901 51.172 48.678 56.541 27.777-5.369 48.679-28.639 48.679-56.541 0-4.168-.479-8.229-1.364-12.147l26.854 18.797 3.313-3.314C256.575 90.678 229.537 80 200 80c-29.837 0-57.128 10.894-78.121 28.916-9.464 42.824-6.632 50.236-6.632 50.236s-4.297 20.989-.399 32.646c3.897 11.66 3.897 22.736 3.897 22.736s6.996 6.996 7.579 19.82c.314 6.934 1.14 16.247 1.833 23.346l21.453-21.453c-9.112-17.123-28.601-34.513-28.601-34.513zM176.459 338.273h1.536c-.578-.091-1.154-.188-1.729-.286l.193.286zM240.597 312.952l30.165-44.784s2.332-20.986 2.915-33.813c.582-12.824 7.579-19.82 7.579-19.82s0-11.076 3.897-22.736c3.897-11.658-.399-32.646-.399-32.646s1.77-4.609-2.144-27.622l-10.479 10.48c-.926 10.819-1.376 21.522-.135 25.99 2.915 10.493 6.996 33.734 6.996 33.734s-26.233 23.395-32.063 42.635c-5.83 19.236-6.414 26.816-6.414 26.816l6.414 5.045-21.571 30.877-5.829-4.893h-11.076L200 297.016l-8.453 5.199h-11.076l-5.83 4.893-21.57-30.877 6.414-5.045s-.315-4.062-2.763-13.766l-20.748 20.748 23.425 34.778C172.08 317.508 185.748 320 200 320c14.25 0 27.916-2.49 40.597-7.048zM223.541 338.273l.193-.286c-.575.098-1.151.195-1.729.286h1.536z"/>
	<path fill="#848484" d="M146.367 214.6s6.623 6.665 15.482 9.408l11.642-11.641c-8.393-.935-16.061-2.128-18.379-3.52-5.83-3.497-8.745 5.753-8.745 5.753zM200 218.432l9.328.91s9.326 5.828 21.569 5.828c12.242 0 22.735-10.57 22.735-10.57s-2.915-9.25-8.745-5.752c-3.035 1.822-15.234 3.305-26.233 4.311a638.288 638.288 0 0 1-17.336 1.326c-.555.037-.999.063-1.318.082a67.528 67.528 0 0 0-.401-.024l-4.353 4.354 4.754-.465z"/>
	<ellipse fill="#848484" cx="208.744" cy="269.955" rx="3.717" ry="23.938"/>
	<ellipse fill="#848484" cx="173.766" cy="269.955" rx="3.716" ry="23.938"/>
	<ellipse fill="#848484" cx="191.256" cy="269.955" rx="3.717" ry="23.938"/>
	<ellipse fill="#848484" cx="226.234" cy="269.955" rx="3.716" ry="23.938"/>
	<path fill="#848484" d="M190.672 219.342s-9.327 5.828-21.569 5.828c-2.518 0-4.959-.451-7.253-1.162l-12.24 12.24c1.457 2.738 2.658 5.469 3.461 8.121 1.566 5.168 2.751 9.487 3.65 13.051l38.525-38.524-4.574.446z"/>
	<path fill="#848484" d="M340 200c0-77.32-62.68-140-140-140S60 122.68 60 200c0 69.229 50.251 126.712 116.266 137.987l-16.867-25.041a119.935 119.935 0 0 1-36.881-21.322l13.456-13.456-6.736-10s-.493-4.435-1.081-10.467l-19.781 19.781C90.678 256.575 80 229.537 80 200c0-36.437 16.243-69.077 41.879-91.084.122-.552.237-1.084.363-1.647 9.449-42.238 71.748-45.333 77.542-45.53v-.013l.217.005.216-.005v.013c5.794.197 68.094 3.292 77.542 45.53 2.186 9.771 3.746 17.751 4.853 24.262l9.014-9.013C309.323 143.424 320 170.463 320 200c0 52.024-33.109 96.311-79.403 112.952l-16.862 25.035C289.749 326.713 340 269.229 340 200zM199.783 338.273h-21.789a141.021 141.021 0 0 0 44.012 0h-22.223z"/>
	<path fill="#848484" d="M274.169 111.689L173.491 212.367c2.595.288 5.257.554 7.854.791 7.344.67 14.147 1.127 17.336 1.326.36.024.655.042.917.058l72.532-72.532c1.249-14.592 3.363-29.394 3.363-29.394l-1.324-.927z"/>
</svg>
