<svg xmlns="http://www.w3.org/2000/svg" width="400" height="400">
	<g fill="#333">
		<path d="M185.434 297.511l-33.093-33.095c-.625-.625-1.653-.606-2.299.037l-33.021 33.02c-.646.646-.662 1.675-.037 2.3l33.094 33.093c.627.627 1.654.608 2.3-.037l33.021-33.02c.643-.643.662-1.672.035-2.298zM184.727 100.227l-33.093-33.093c-.625-.625-1.653-.608-2.299.036l-33.021 33.02c-.646.646-.662 1.674-.037 2.299l33.094 33.093c.627.626 1.654.608 2.301-.038l33.021-33.02c.642-.642.661-1.671.034-2.297zM234.227 149.725l-33.096-33.093c-.625-.625-1.654-.608-2.298.036l-33.021 33.02c-.646.646-.662 1.675-.037 2.3l33.094 33.093c.626.626 1.654.608 2.299-.037l33.021-33.02c.644-.645.663-1.673.038-2.299zM283.723 199.222l-33.094-33.093c-.625-.625-1.652-.608-2.299.036l-33.02 33.02c-.646.646-.662 1.675-.037 2.299l33.093 33.094c.627.627 1.653.608 2.3-.037l33.021-33.021c.643-.643.663-1.672.036-2.298zM234.227 248.72l-33.096-33.093c-.625-.625-1.654-.608-2.298.035l-33.021 33.021c-.646.646-.662 1.675-.037 2.3l33.094 33.094c.626.625 1.654.607 2.299-.037l33.021-33.021c.644-.644.663-1.672.038-2.299zM184.727 199.222l-33.093-33.093c-.625-.625-1.653-.608-2.299.036l-33.021 33.02c-.646.646-.662 1.675-.037 2.299l33.094 33.094c.627.627 1.654.608 2.301-.037l33.021-33.021c.641-.643.661-1.672.034-2.298z"/>
	</g>
</svg>
