<svg xmlns="http://www.w3.org/2000/svg" width="400" height="400">
	<path fill="#333" d="M155.499 293.4l.002-46.801c0-.885-.741-1.601-1.652-1.601l-46.698-.002c-.914.001-1.652.718-1.652 1.603v46.799c0 .888.739 1.601 1.652 1.601l46.698.002c.91 0 1.651-.715 1.65-1.601zM294.5 153.4v-46.799c0-.884-.74-1.6-1.65-1.601l-46.699-.001c-.912 0-1.649.716-1.649 1.6v46.8c0 .886.74 1.6 1.651 1.6h46.699c.908.002 1.648-.713 1.648-1.599zM294.5 223.402V176.6c0-.884-.74-1.599-1.652-1.6H246.15c-.912 0-1.652.716-1.652 1.6v46.8c0 .886.74 1.6 1.652 1.601l46.699.001c.911-.001 1.651-.715 1.651-1.6zM294.5 293.4v-46.8c0-.884-.74-1.599-1.65-1.6h-46.697c-.913 0-1.651.717-1.651 1.6v46.8c0 .887.738 1.6 1.651 1.6h46.697c.91.001 1.65-.714 1.65-1.6zM224.501 293.4l-.001-46.8c0-.884-.74-1.6-1.65-1.601h-46.698c-.913 0-1.652.717-1.652 1.601v46.8c0 .885.74 1.6 1.652 1.6h46.7c.908.001 1.648-.713 1.649-1.6zM224.499 223.4l.001-46.8c0-.884-.74-1.6-1.65-1.6l-46.699-.001c-.914 0-1.652.717-1.651 1.6V223.4c0 .887.739 1.6 1.653 1.601h46.699c.908-.001 1.648-.715 1.647-1.601zM224.5 153.4v-46.8c0-.884-.74-1.6-1.65-1.601l-46.699-.001c-.912 0-1.65.716-1.65 1.6v46.8c0 .886.74 1.6 1.652 1.601h46.699c.908.002 1.648-.713 1.648-1.599zM154.5 223.4v-46.8c0-.884-.74-1.6-1.65-1.601l-46.699-.001c-.912 0-1.65.716-1.65 1.6v46.8c0 .886.74 1.6 1.652 1.601h46.699c.908.002 1.648-.713 1.648-1.599zM154.5 153.4v-46.8c0-.884-.74-1.6-1.65-1.601l-46.699-.001c-.912 0-1.65.716-1.65 1.6v46.8c0 .886.74 1.6 1.652 1.601h46.699c.908.002 1.648-.713 1.648-1.599z"/>
</svg>
