<?xml version="1.0" encoding="utf-8"?>
<!-- Generator: Adobe Illustrator 15.1.0, SVG Export Plug-In . SVG Version: 6.00 Build 0)  -->
<!DOCTYPE svg PUBLIC "-//W3C//DTD SVG 1.1//EN" "http://www.w3.org/Graphics/SVG/1.1/DTD/svg11.dtd">
<svg version="1.1" id="Ebene_1" xmlns="http://www.w3.org/2000/svg" xmlns:xlink="http://www.w3.org/1999/xlink" x="0px" y="0px"
	 width="400px" height="400px" viewBox="0 0 400 400" enable-background="new 0 0 400 400" xml:space="preserve">
<g>
	<path fill="#333333" d="M308.847,185.531v-53.065c0-1.002-0.838-1.813-1.871-1.813h-52.949c-1.035,0-1.873,0.811-1.873,1.813
		v53.065c0,1.004,0.838,1.815,1.873,1.815h52.949C308.009,187.347,308.847,186.536,308.847,185.531z"/>
	<path fill="#333333" d="M227.847,267.532v-53.065c0-1.002-0.838-1.813-1.871-1.813h-52.949c-1.035,0-1.873,0.812-1.873,1.813
		v53.065c0,1.004,0.838,1.814,1.873,1.814h52.949C227.009,269.347,227.847,268.536,227.847,267.532z"/>
	<path fill="#333333" d="M227.847,187.532v-53.066c0-1.002-0.838-1.813-1.871-1.813h-52.949c-1.035,0-1.873,0.811-1.873,1.813
		v53.066c0,1.004,0.838,1.814,1.873,1.814h52.949C227.009,189.347,227.847,188.536,227.847,187.532z"/>
	<path fill="#333333" d="M147.847,187.532v-53.066c0-1.002-0.838-1.813-1.871-1.813H93.026c-1.035,0-1.873,0.811-1.873,1.813v53.066
		c0,1.004,0.838,1.814,1.873,1.814h52.949C147.009,189.347,147.847,188.536,147.847,187.532z"/>
</g>
</svg>
