<svg xmlns="http://www.w3.org/2000/svg" width="400" height="400">
	<g fill="#848484">
		<path d="M200 56.5c-79.252 0-143.5 64.247-143.5 143.5S120.748 343.5 200 343.5c79.253 0 143.5-64.247 143.5-143.5S279.253 56.5 200 56.5zm0 268.337c-31.039 0-59.429-11.332-81.267-30.079l34.525-34.525-4.552-22.431-43.464 43.466c-18.747-21.839-30.08-50.229-30.08-81.268 0-34.175 13.738-65.137 35.985-87.68l-.311-6.953 1.615 5.652C134.985 88.848 165.892 75.163 200 75.163c31.039 0 59.429 11.332 81.268 30.08l-46.309 46.308 12.802-5.684 12.956 6.907 20.861-20.862 7.584-26.545-.888 19.848 6.483-6.482c18.747 21.838 30.079 50.228 30.079 81.267.001 68.945-55.89 124.837-124.836 124.837z"/>
		<path d="M237.177 170.167c-8.107-.384-13.313-2.225-16.626-4.208l-61.047 61.046.245.197L200 203.028v.155l6.439 3.868 37.352-37.353c-2.009.402-4.208.583-6.614.469zM286.358 149.619l-1.864 17.248-2.802-5.1c-2.802-5.099-5.914 1.501-5.914 1.501s-1.868 30.899 3.424 30.6c5.292-.3 5.604-16.801 5.604-16.801l12.452-33.9-9.65-3 .668-14.952-6.696 6.697-4.244 14.855 9.022 2.852zM262.392 153.667l-1.675-.893-16.926 16.924c13.851-2.762 18.601-16.031 18.601-16.031zM220.551 165.959l14.408-14.409-19.884 8.828c0 .001 1.029 2.919 5.476 5.581zM102.744 143.167l12.452 33.9s.311 16.501 5.603 16.801c5.292.299 3.424-30.6 3.424-30.6s-3.112-6.6-5.915-1.501l-2.801 5.1-1.863-17.248 9.023-2.851-10.214-35.749c-.438.431-.873.864-1.304 1.301l1.246 27.847-9.651 3zM162.823 170.167c18.991-.9 22.103-9.789 22.103-9.789l-32.686-14.512-14.631 7.8c0 .001 6.226 17.401 25.214 16.501zM199.719 294.476c.095-.001.188-.005.282-.007v.156c.094.001.187.005.281.005 29.555.282 43.91-21.673 43.91-21.673l11.822-58.265-15.764 12.666-33.811-20.307-53.181 53.181 2.551 12.569c0 .001 14.354 21.956 43.91 21.675zM143.987 214.537l4.72 23.265 10.797-10.796z"/>
	</g>
</svg>
