<?xml version="1.0" encoding="utf-8"?>
<!-- Generator: Adobe Illustrator 15.1.0, SVG Export Plug-In . SVG Version: 6.00 Build 0)  -->
<!DOCTYPE svg PUBLIC "-//W3C//DTD SVG 1.1//EN" "http://www.w3.org/Graphics/SVG/1.1/DTD/svg11.dtd">
<svg version="1.1" id="Ebene_1" xmlns="http://www.w3.org/2000/svg" xmlns:xlink="http://www.w3.org/1999/xlink" x="0px" y="0px"
	 width="400px" height="400px" viewBox="0 0 400 400" enable-background="new 0 0 400 400" xml:space="preserve">
<path fill="#CCCCCC" d="M370.079,116.411c0,6.592-5.659,11.936-12.638,11.936H42.559c-6.979,0-12.638-5.344-12.638-11.936V83.589
	c0-6.592,5.658-11.936,12.638-11.936h314.883c6.979,0,12.638,5.344,12.638,11.936V116.411z"/>
<path fill="#CCCCCC" d="M370.079,216.411c0,6.592-5.659,11.936-12.638,11.936H42.559c-6.979,0-12.638-5.344-12.638-11.936v-32.822
	c0-6.592,5.658-11.936,12.638-11.936h314.883c6.979,0,12.638,5.344,12.638,11.936V216.411z"/>
<path fill="#CCCCCC" d="M370.079,316.411c0,6.592-5.659,11.936-12.638,11.936H42.559c-6.979,0-12.638-5.344-12.638-11.936v-32.822
	c0-6.592,5.658-11.936,12.638-11.936h314.883c6.979,0,12.638,5.344,12.638,11.936V316.411z"/>
</svg>
