<?xml version="1.0" encoding="utf-8"?>
<!-- Generator: Adobe Illustrator 15.1.0, SVG Export Plug-In . SVG Version: 6.00 Build 0)  -->
<!DOCTYPE svg PUBLIC "-//W3C//DTD SVG 1.1//EN" "http://www.w3.org/Graphics/SVG/1.1/DTD/svg11.dtd">
<svg version="1.1" id="Ebene_1" xmlns="http://www.w3.org/2000/svg" xmlns:xlink="http://www.w3.org/1999/xlink" x="0px" y="0px"
	 width="400px" height="400px" viewBox="0 0 400 400" enable-background="new 0 0 400 400" xml:space="preserve">
<path fill="#333333" d="M262.401,274H215.6c-0.884,0-1.6,0.74-1.6,1.65v46.697c0,0.913,0.716,1.652,1.6,1.652h46.801
	c0.886,0,1.6-0.739,1.6-1.652V275.65C264.001,274.74,263.286,274,262.401,274z"/>
<path fill="#333333" d="M122.401,204H75.6c-0.884,0-1.6,0.74-1.6,1.65v46.697c0,0.913,0.716,1.652,1.6,1.652h46.801
	c0.886,0,1.6-0.739,1.6-1.652V205.65C124.001,204.74,123.286,204,122.401,204z"/>
<path fill="#333333" d="M332.401,204H285.6c-0.884,0-1.6,0.74-1.6,1.65v46.697c0,0.913,0.716,1.652,1.6,1.652h46.801
	c0.886,0,1.6-0.739,1.6-1.652V205.65C334.001,204.74,333.286,204,332.401,204z"/>
<path fill="#333333" d="M122.401,135H75.6c-0.884,0-1.6,0.74-1.6,1.65v46.697c0,0.913,0.716,1.652,1.6,1.652h46.801
	c0.886,0,1.6-0.739,1.6-1.652V136.65C124.001,135.74,123.286,135,122.401,135z"/>
<path fill="#333333" d="M192.401,134H145.6c-0.884,0-1.6,0.74-1.6,1.65v46.697c0,0.913,0.716,1.652,1.6,1.652h46.801
	c0.886,0,1.6-0.739,1.6-1.652V135.65C194.001,134.74,193.286,134,192.401,134z"/>
<path fill="#333333" d="M192.401,275H145.6c-0.884,0-1.6,0.74-1.6,1.65v46.697c0,0.913,0.716,1.652,1.6,1.652h46.801
	c0.886,0,1.6-0.739,1.6-1.652V276.65C194.001,275.74,193.286,275,192.401,275z"/>
<path fill="#333333" d="M122.401,275H75.6c-0.884,0-1.6,0.74-1.6,1.65v46.697c0,0.913,0.716,1.652,1.6,1.652h46.801
	c0.886,0,1.6-0.739,1.6-1.652V276.65C124.001,275.74,123.286,275,122.401,275z"/>
<path fill="#333333" d="M192.401,65H145.6c-0.884,0-1.6,0.74-1.6,1.65v46.697c0,0.913,0.716,1.652,1.6,1.652h46.801
	c0.886,0,1.6-0.739,1.6-1.652V66.65C194.001,65.74,193.286,65,192.401,65z"/>
<path fill="#333333" d="M262.401,65H215.6c-0.884,0-1.6,0.74-1.6,1.65v46.697c0,0.913,0.716,1.652,1.6,1.652h46.801
	c0.886,0,1.6-0.739,1.6-1.652V66.65C264.001,65.74,263.286,65,262.401,65z"/>
<path fill="#333333" d="M332.401,65H285.6c-0.884,0-1.6,0.74-1.6,1.65v46.697c0,0.913,0.716,1.652,1.6,1.652h46.801
	c0.886,0,1.6-0.739,1.6-1.652V66.65C334.001,65.74,333.286,65,332.401,65z"/>
<path fill="#333333" d="M332.401,135H285.6c-0.884,0-1.6,0.74-1.6,1.65v46.697c0,0.913,0.716,1.652,1.6,1.652h46.801
	c0.886,0,1.6-0.739,1.6-1.652V136.65C334.001,135.74,333.286,135,332.401,135z"/>
<path fill="#333333" d="M262.401,205H215.6c-0.884,0-1.6,0.74-1.6,1.65v46.697c0,0.913,0.716,1.652,1.6,1.652h46.801
	c0.886,0,1.6-0.739,1.6-1.652V206.65C264.001,205.74,263.286,205,262.401,205z"/>
</svg>
