<svg xmlns="http://www.w3.org/2000/svg" width="400" height="400">
	<path fill="#333" d="M131.643 92.843l33.093 33.094c.625.625 1.654.607 2.298-.036l33.021-33.02c.646-.646.662-1.675.037-2.3l-33.093-33.093c-.627-.627-1.654-.608-2.3.037l-33.021 33.02c-.644.644-.662 1.672-.035 2.298zM210.637 191.839l33.094 33.093c.625.625 1.654.607 2.298-.036l33.02-33.02c.646-.646.662-1.674.037-2.299l-33.093-33.094c-.626-.626-1.653-.608-2.3.038l-33.02 33.02c-.643.643-.662 1.671-.036 2.298z"/>
	<path fill="#333" d="M263.771 191.131l33.093 33.093c.625.625 1.655.607 2.299-.036l33.02-33.02c.646-.646.662-1.675.037-2.299l-33.093-33.094c-.627-.626-1.654-.608-2.3.038l-33.02 33.02c-.645.644-.662 1.672-.036 2.298zM132.35 290.126l33.093 33.094c.625.625 1.654.607 2.298-.036l33.021-33.021c.646-.646.662-1.674.037-2.299l-33.093-33.094c-.627-.626-1.654-.608-2.3.038l-33.021 33.02c-.645.644-.662 1.672-.035 2.298zM82.852 240.629l33.094 33.093c.625.625 1.654.608 2.298-.035l33.02-33.021c.646-.646.663-1.675.038-2.3l-33.094-33.093c-.626-.626-1.653-.608-2.299.037l-33.021 33.021c-.645.643-.662 1.672-.036 2.298zM33.355 191.131l33.093 33.093c.625.625 1.654.607 2.299-.036l33.02-33.02c.646-.646.662-1.675.037-2.299L68.71 155.776c-.627-.626-1.654-.608-2.3.038l-33.02 33.02c-.644.643-.661 1.671-.035 2.297zM82.852 141.634l33.094 33.093c.625.625 1.654.608 2.298-.036l33.02-33.02c.646-.646.663-1.675.038-2.3l-33.094-33.093c-.626-.626-1.653-.608-2.299.037l-33.021 33.021c-.645.643-.662 1.671-.036 2.298zM162.35 191.131l33.093 33.093c.625.625 1.654.607 2.298-.036l33.021-33.02c.646-.646.662-1.675.037-2.299l-33.093-33.094c-.627-.626-1.654-.608-2.3.038l-33.021 33.02c-.644.644-.662 1.672-.035 2.298z"/>
	<path fill="#333" d="M316.198 191.131l33.093 33.093c.625.625 1.654.607 2.298-.036l33.021-33.02c.646-.646.662-1.675.037-2.299l-33.094-33.094c-.626-.626-1.653-.608-2.299.038l-33.021 33.02c-.644.644-.662 1.672-.035 2.298z"/>
</svg>
